<?xml version="1.0" encoding="UTF-8" standalone="no"?><svg xmlns="http://www.w3.org/2000/svg" xmlns:xlink="http://www.w3.org/1999/xlink" contentScriptType="application/ecmascript" contentStyleType="text/css" height="307px" preserveAspectRatio="none" style="width:550px;height:307px;background:#FFFFFF;" version="1.1" viewBox="0 0 550 307" width="550px" zoomAndPan="magnify"><defs><filter height="300%" id="f1wgh6sijq954u" width="300%" x="-1" y="-1"><feGaussianBlur result="blurOut" stdDeviation="2.0"/><feColorMatrix in="blurOut" result="blurOut2" type="matrix" values="0 0 0 0 0 0 0 0 0 0 0 0 0 0 0 0 0 0 .4 0"/><feOffset dx="4.0" dy="4.0" in="blurOut2" result="blurOut3"/><feBlend in="SourceGraphic" in2="blurOut3" mode="normal"/></filter></defs><g><line style="stroke:#A80036;stroke-width:1.0;stroke-dasharray:5.0,5.0;" x1="32" x2="32" y1="40.2969" y2="264.2266"/><line style="stroke:#A80036;stroke-width:1.0;stroke-dasharray:5.0,5.0;" x1="287" x2="287" y1="40.2969" y2="264.2266"/><line style="stroke:#A80036;stroke-width:1.0;stroke-dasharray:5.0,5.0;" x1="408.5" x2="408.5" y1="40.2969" y2="264.2266"/><line style="stroke:#A80036;stroke-width:1.0;stroke-dasharray:5.0,5.0;" x1="494.5" x2="494.5" y1="40.2969" y2="264.2266"/><rect fill="#FEFECE" filter="url(#f1wgh6sijq954u)" height="30.2969" style="stroke:#A80036;stroke-width:1.5;" width="51" x="5" y="5"/><text fill="#000000" font-family="sans-serif" font-size="14" lengthAdjust="spacing" textLength="37" x="12" y="24.9951">client</text><rect fill="#FEFECE" filter="url(#f1wgh6sijq954u)" height="30.2969" style="stroke:#A80036;stroke-width:1.5;" width="51" x="5" y="263.2266"/><text fill="#000000" font-family="sans-serif" font-size="14" lengthAdjust="spacing" textLength="37" x="12" y="283.2217">client</text><rect fill="#FEFECE" filter="url(#f1wgh6sijq954u)" height="30.2969" style="stroke:#A80036;stroke-width:1.5;" width="57" x="257" y="5"/><text fill="#000000" font-family="sans-serif" font-size="14" lengthAdjust="spacing" textLength="43" x="264" y="24.9951">server</text><rect fill="#FEFECE" filter="url(#f1wgh6sijq954u)" height="30.2969" style="stroke:#A80036;stroke-width:1.5;" width="57" x="257" y="263.2266"/><text fill="#000000" font-family="sans-serif" font-size="14" lengthAdjust="spacing" textLength="43" x="264" y="283.2217">server</text><rect fill="#FEFECE" filter="url(#f1wgh6sijq954u)" height="30.2969" style="stroke:#A80036;stroke-width:1.5;" width="56" x="378.5" y="5"/><text fill="#000000" font-family="sans-serif" font-size="14" lengthAdjust="spacing" textLength="42" x="385.5" y="24.9951">cache</text><rect fill="#FEFECE" filter="url(#f1wgh6sijq954u)" height="30.2969" style="stroke:#A80036;stroke-width:1.5;" width="56" x="378.5" y="263.2266"/><text fill="#000000" font-family="sans-serif" font-size="14" lengthAdjust="spacing" textLength="42" x="385.5" y="283.2217">cache</text><rect fill="#FEFECE" filter="url(#f1wgh6sijq954u)" height="30.2969" style="stroke:#A80036;stroke-width:1.5;" width="88" x="448.5" y="5"/><text fill="#000000" font-family="sans-serif" font-size="14" lengthAdjust="spacing" textLength="74" x="455.5" y="24.9951">Thinknode</text><rect fill="#FEFECE" filter="url(#f1wgh6sijq954u)" height="30.2969" style="stroke:#A80036;stroke-width:1.5;" width="88" x="448.5" y="263.2266"/><text fill="#000000" font-family="sans-serif" font-size="14" lengthAdjust="spacing" textLength="74" x="455.5" y="283.2217">Thinknode</text><polygon fill="#A80036" points="275.5,67.4297,285.5,71.4297,275.5,75.4297,279.5,71.4297" style="stroke:#A80036;stroke-width:1.0;"/><line style="stroke:#A80036;stroke-width:1.0;" x1="32.5" x2="281.5" y1="71.4297" y2="71.4297"/><text fill="#000000" font-family="sans-serif" font-size="13" lengthAdjust="spacing" textLength="147" x="39.5" y="66.3638">post_iss_object(object)</text><polygon fill="#A80036" points="396.5,96.5625,406.5,100.5625,396.5,104.5625,400.5,100.5625" style="stroke:#A80036;stroke-width:1.0;"/><line style="stroke:#A80036;stroke-width:1.0;" x1="287.5" x2="402.5" y1="100.5625" y2="100.5625"/><text fill="#000000" font-family="sans-serif" font-size="13" lengthAdjust="spacing" textLength="72" x="294.5" y="95.4966">find(object)</text><polygon fill="#A80036" points="298.5,125.6953,288.5,129.6953,298.5,133.6953,294.5,129.6953" style="stroke:#A80036;stroke-width:1.0;"/><line style="stroke:#A80036;stroke-width:1.0;stroke-dasharray:2.0,2.0;" x1="292.5" x2="407.5" y1="129.6953" y2="129.6953"/><text fill="#000000" font-family="sans-serif" font-size="13" lengthAdjust="spacing" textLength="30" x="304.5" y="124.6294">miss</text><polygon fill="#A80036" points="482.5,154.8281,492.5,158.8281,482.5,162.8281,486.5,158.8281" style="stroke:#A80036;stroke-width:1.0;"/><line style="stroke:#A80036;stroke-width:1.0;" x1="287.5" x2="488.5" y1="158.8281" y2="158.8281"/><text fill="#000000" font-family="sans-serif" font-size="13" lengthAdjust="spacing" textLength="111" x="294.5" y="153.7622">POST /iss/{:type}</text><polygon fill="#A80036" points="298.5,183.9609,288.5,187.9609,298.5,191.9609,294.5,187.9609" style="stroke:#A80036;stroke-width:1.0;"/><line style="stroke:#A80036;stroke-width:1.0;stroke-dasharray:2.0,2.0;" x1="292.5" x2="493.5" y1="187.9609" y2="187.9609"/><text fill="#000000" font-family="sans-serif" font-size="13" lengthAdjust="spacing" textLength="54" x="304.5" y="182.895">object id</text><polygon fill="#A80036" points="396.5,213.0938,406.5,217.0938,396.5,221.0938,400.5,217.0938" style="stroke:#A80036;stroke-width:1.0;"/><line style="stroke:#A80036;stroke-width:1.0;" x1="287.5" x2="402.5" y1="217.0938" y2="217.0938"/><text fill="#000000" font-family="sans-serif" font-size="13" lengthAdjust="spacing" textLength="97" x="294.5" y="212.0278">store(object id)</text><polygon fill="#A80036" points="43.5,242.2266,33.5,246.2266,43.5,250.2266,39.5,246.2266" style="stroke:#A80036;stroke-width:1.0;"/><line style="stroke:#A80036;stroke-width:1.0;stroke-dasharray:2.0,2.0;" x1="37.5" x2="286.5" y1="246.2266" y2="246.2266"/><text fill="#000000" font-family="sans-serif" font-size="13" lengthAdjust="spacing" textLength="231" x="49.5" y="241.1606">post_iss_object_response(object_id)</text><!--MD5=[4f461d21f0c06d9c4e307e577ff9b41e]
@startuml
client -> server: post_iss_object(object)

server -> cache: find(object)
server <- - cache: miss
server -> Thinknode: POST /iss/{:type}
server <- - Thinknode: object id
server -> cache: store(object id)

client <- - server: post_iss_object_response(object_id)
@enduml

PlantUML version 1.2022.0(Tue Jan 11 17:16:42 CET 2022)
(GPL source distribution)
Java Runtime: OpenJDK Runtime Environment
JVM: OpenJDK 64-Bit Server VM
Default Encoding: UTF-8
Language: en
Country: null
--></g></svg>