<?xml version="1.0" encoding="UTF-8" standalone="no"?><svg xmlns="http://www.w3.org/2000/svg" xmlns:xlink="http://www.w3.org/1999/xlink" contentScriptType="application/ecmascript" contentStyleType="text/css" height="684px" preserveAspectRatio="none" style="width:828px;height:684px;background:#FFFFFF;" version="1.1" viewBox="0 0 828 684" width="828px" zoomAndPan="magnify"><defs><filter height="300%" id="fh1jtm9nc5u39" width="300%" x="-1" y="-1"><feGaussianBlur result="blurOut" stdDeviation="2.0"/><feColorMatrix in="blurOut" result="blurOut2" type="matrix" values="0 0 0 0 0 0 0 0 0 0 0 0 0 0 0 0 0 0 .4 0"/><feOffset dx="4.0" dy="4.0" in="blurOut2" result="blurOut3"/><feBlend in="SourceGraphic" in2="blurOut3" mode="normal"/></filter></defs><g><line style="stroke:#A80036;stroke-width:1.0;stroke-dasharray:5.0,5.0;" x1="32" x2="32" y1="40.2969" y2="640.9531"/><line style="stroke:#A80036;stroke-width:1.0;stroke-dasharray:5.0,5.0;" x1="175" x2="175" y1="40.2969" y2="640.9531"/><line style="stroke:#A80036;stroke-width:1.0;stroke-dasharray:5.0,5.0;" x1="290.5" x2="290.5" y1="40.2969" y2="640.9531"/><line style="stroke:#A80036;stroke-width:1.0;stroke-dasharray:5.0,5.0;" x1="375.5" x2="375.5" y1="40.2969" y2="640.9531"/><line style="stroke:#A80036;stroke-width:1.0;stroke-dasharray:5.0,5.0;" x1="504" x2="504" y1="40.2969" y2="640.9531"/><line style="stroke:#A80036;stroke-width:1.0;stroke-dasharray:5.0,5.0;" x1="647" x2="647" y1="40.2969" y2="640.9531"/><line style="stroke:#A80036;stroke-width:1.0;stroke-dasharray:5.0,5.0;" x1="772" x2="772" y1="40.2969" y2="640.9531"/><rect fill="#FEFECE" filter="url(#fh1jtm9nc5u39)" height="30.2969" style="stroke:#A80036;stroke-width:1.5;" width="51" x="5" y="5"/><text fill="#000000" font-family="sans-serif" font-size="14" lengthAdjust="spacing" textLength="37" x="12" y="24.9951">client</text><rect fill="#FEFECE" filter="url(#fh1jtm9nc5u39)" height="30.2969" style="stroke:#A80036;stroke-width:1.5;" width="51" x="5" y="639.9531"/><text fill="#000000" font-family="sans-serif" font-size="14" lengthAdjust="spacing" textLength="37" x="12" y="659.9482">client</text><rect fill="#FEFECE" filter="url(#fh1jtm9nc5u39)" height="30.2969" style="stroke:#A80036;stroke-width:1.5;" width="57" x="145" y="5"/><text fill="#000000" font-family="sans-serif" font-size="14" lengthAdjust="spacing" textLength="43" x="152" y="24.9951">server</text><rect fill="#FEFECE" filter="url(#fh1jtm9nc5u39)" height="30.2969" style="stroke:#A80036;stroke-width:1.5;" width="57" x="145" y="639.9531"/><text fill="#000000" font-family="sans-serif" font-size="14" lengthAdjust="spacing" textLength="43" x="152" y="659.9482">server</text><rect fill="#FEFECE" filter="url(#fh1jtm9nc5u39)" height="30.2969" style="stroke:#A80036;stroke-width:1.5;" width="56" x="260.5" y="5"/><text fill="#000000" font-family="sans-serif" font-size="14" lengthAdjust="spacing" textLength="42" x="267.5" y="24.9951">cache</text><rect fill="#FEFECE" filter="url(#fh1jtm9nc5u39)" height="30.2969" style="stroke:#A80036;stroke-width:1.5;" width="56" x="260.5" y="639.9531"/><text fill="#000000" font-family="sans-serif" font-size="14" lengthAdjust="spacing" textLength="42" x="267.5" y="659.9482">cache</text><rect fill="#FEFECE" filter="url(#fh1jtm9nc5u39)" height="30.2969" style="stroke:#A80036;stroke-width:1.5;" width="86" x="330.5" y="5"/><text fill="#000000" font-family="sans-serif" font-size="14" lengthAdjust="spacing" textLength="72" x="337.5" y="24.9951">supervisor</text><rect fill="#FEFECE" filter="url(#fh1jtm9nc5u39)" height="30.2969" style="stroke:#A80036;stroke-width:1.5;" width="86" x="330.5" y="639.9531"/><text fill="#000000" font-family="sans-serif" font-size="14" lengthAdjust="spacing" textLength="72" x="337.5" y="659.9482">supervisor</text><rect fill="#FEFECE" filter="url(#fh1jtm9nc5u39)" height="30.2969" style="stroke:#A80036;stroke-width:1.5;" width="125" x="440" y="5"/><text fill="#000000" font-family="sans-serif" font-size="14" lengthAdjust="spacing" textLength="111" x="447" y="24.9951">Docker daemon</text><rect fill="#FEFECE" filter="url(#fh1jtm9nc5u39)" height="30.2969" style="stroke:#A80036;stroke-width:1.5;" width="125" x="440" y="639.9531"/><text fill="#000000" font-family="sans-serif" font-size="14" lengthAdjust="spacing" textLength="111" x="447" y="659.9482">Docker daemon</text><rect fill="#FEFECE" filter="url(#fh1jtm9nc5u39)" height="30.2969" style="stroke:#A80036;stroke-width:1.5;" width="133" x="579" y="5"/><text fill="#000000" font-family="sans-serif" font-size="14" lengthAdjust="spacing" textLength="119" x="586" y="24.9951">Docker container</text><rect fill="#FEFECE" filter="url(#fh1jtm9nc5u39)" height="30.2969" style="stroke:#A80036;stroke-width:1.5;" width="133" x="579" y="639.9531"/><text fill="#000000" font-family="sans-serif" font-size="14" lengthAdjust="spacing" textLength="119" x="586" y="659.9482">Docker container</text><rect fill="#FEFECE" filter="url(#fh1jtm9nc5u39)" height="30.2969" style="stroke:#A80036;stroke-width:1.5;" width="88" x="726" y="5"/><text fill="#000000" font-family="sans-serif" font-size="14" lengthAdjust="spacing" textLength="74" x="733" y="24.9951">Thinknode</text><rect fill="#FEFECE" filter="url(#fh1jtm9nc5u39)" height="30.2969" style="stroke:#A80036;stroke-width:1.5;" width="88" x="726" y="639.9531"/><text fill="#000000" font-family="sans-serif" font-size="14" lengthAdjust="spacing" textLength="74" x="733" y="659.9482">Thinknode</text><polygon fill="#A80036" points="163.5,67.4297,173.5,71.4297,163.5,75.4297,167.5,71.4297" style="stroke:#A80036;stroke-width:1.0;"/><line style="stroke:#A80036;stroke-width:1.0;" x1="32.5" x2="169.5" y1="71.4297" y2="71.4297"/><text fill="#000000" font-family="sans-serif" font-size="13" lengthAdjust="spacing" textLength="119" x="39.5" y="66.3638">perform_local_calc</text><line style="stroke:#A80036;stroke-width:1.0;" x1="175.5" x2="217.5" y1="115.6953" y2="115.6953"/><line style="stroke:#A80036;stroke-width:1.0;" x1="217.5" x2="217.5" y1="115.6953" y2="128.6953"/><line style="stroke:#A80036;stroke-width:1.0;" x1="176.5" x2="217.5" y1="128.6953" y2="128.6953"/><polygon fill="#A80036" points="186.5,124.6953,176.5,128.6953,186.5,132.6953,182.5,128.6953" style="stroke:#A80036;stroke-width:1.0;"/><text fill="#000000" font-family="sans-serif" font-size="13" lengthAdjust="spacing" textLength="80" x="182.5" y="95.4966">non-function</text><text fill="#000000" font-family="sans-serif" font-size="13" lengthAdjust="spacing" textLength="75" x="182.5" y="110.6294">calculations</text><polygon fill="#A80036" points="278.5,153.8281,288.5,157.8281,278.5,161.8281,282.5,157.8281" style="stroke:#A80036;stroke-width:1.0;"/><line style="stroke:#A80036;stroke-width:1.0;" x1="175.5" x2="284.5" y1="157.8281" y2="157.8281"/><text fill="#000000" font-family="sans-serif" font-size="13" lengthAdjust="spacing" textLength="84" x="182.5" y="152.7622">find(function)</text><polygon fill="#A80036" points="186.5,182.9609,176.5,186.9609,186.5,190.9609,182.5,186.9609" style="stroke:#A80036;stroke-width:1.0;"/><line style="stroke:#A80036;stroke-width:1.0;stroke-dasharray:2.0,2.0;" x1="180.5" x2="289.5" y1="186.9609" y2="186.9609"/><text fill="#000000" font-family="sans-serif" font-size="13" lengthAdjust="spacing" textLength="30" x="192.5" y="181.895">miss</text><polygon fill="#A80036" points="363.5,212.0938,373.5,216.0938,363.5,220.0938,367.5,216.0938" style="stroke:#A80036;stroke-width:1.0;"/><line style="stroke:#A80036;stroke-width:1.0;" x1="175.5" x2="369.5" y1="216.0938" y2="216.0938"/><text fill="#000000" font-family="sans-serif" font-size="13" lengthAdjust="spacing" textLength="133" x="182.5" y="211.0278">supervise calculation</text><polygon fill="#A80036" points="492.5,241.2266,502.5,245.2266,492.5,249.2266,496.5,245.2266" style="stroke:#A80036;stroke-width:1.0;"/><line style="stroke:#A80036;stroke-width:1.0;" x1="375.5" x2="498.5" y1="245.2266" y2="245.2266"/><text fill="#000000" font-family="sans-serif" font-size="13" lengthAdjust="spacing" textLength="85" x="382.5" y="240.1606">create image</text><polygon fill="#A80036" points="760,270.3594,770,274.3594,760,278.3594,764,274.3594" style="stroke:#A80036;stroke-width:1.0;"/><line style="stroke:#A80036;stroke-width:1.0;" x1="504.5" x2="766" y1="274.3594" y2="274.3594"/><text fill="#000000" font-family="sans-serif" font-size="13" lengthAdjust="spacing" textLength="66" x="511.5" y="269.2935">pull image</text><polygon fill="#A80036" points="492.5,299.4922,502.5,303.4922,492.5,307.4922,496.5,303.4922" style="stroke:#A80036;stroke-width:1.0;"/><line style="stroke:#A80036;stroke-width:1.0;" x1="375.5" x2="498.5" y1="303.4922" y2="303.4922"/><text fill="#000000" font-family="sans-serif" font-size="13" lengthAdjust="spacing" textLength="105" x="382.5" y="298.4263">create container</text><polygon fill="#A80036" points="386.5,328.625,376.5,332.625,386.5,336.625,382.5,332.625" style="stroke:#A80036;stroke-width:1.0;"/><line style="stroke:#A80036;stroke-width:1.0;stroke-dasharray:2.0,2.0;" x1="380.5" x2="503.5" y1="332.625" y2="332.625"/><text fill="#000000" font-family="sans-serif" font-size="13" lengthAdjust="spacing" textLength="75" x="392.5" y="327.5591">container id</text><polygon fill="#A80036" points="492.5,357.7578,502.5,361.7578,492.5,365.7578,496.5,361.7578" style="stroke:#A80036;stroke-width:1.0;"/><line style="stroke:#A80036;stroke-width:1.0;" x1="375.5" x2="498.5" y1="361.7578" y2="361.7578"/><text fill="#000000" font-family="sans-serif" font-size="13" lengthAdjust="spacing" textLength="94" x="382.5" y="356.6919">start container</text><polygon fill="#A80036" points="635.5,386.8906,645.5,390.8906,635.5,394.8906,639.5,390.8906" style="stroke:#A80036;stroke-width:1.0;"/><line style="stroke:#A80036;stroke-width:1.0;" x1="504.5" x2="641.5" y1="390.8906" y2="390.8906"/><text fill="#000000" font-family="sans-serif" font-size="13" lengthAdjust="spacing" textLength="30" x="511.5" y="385.8247">start</text><polygon fill="#A80036" points="386.5,416.0234,376.5,420.0234,386.5,424.0234,382.5,420.0234" style="stroke:#A80036;stroke-width:1.0;"/><line style="stroke:#A80036;stroke-width:1.0;stroke-dasharray:2.0,2.0;" x1="380.5" x2="646.5" y1="420.0234" y2="420.0234"/><text fill="#000000" font-family="sans-serif" font-size="13" lengthAdjust="spacing" textLength="73" x="392.5" y="414.9575">registration</text><polygon fill="#A80036" points="635.5,445.1563,645.5,449.1563,635.5,453.1563,639.5,449.1563" style="stroke:#A80036;stroke-width:1.0;"/><line style="stroke:#A80036;stroke-width:1.0;" x1="375.5" x2="641.5" y1="449.1563" y2="449.1563"/><text fill="#000000" font-family="sans-serif" font-size="13" lengthAdjust="spacing" textLength="70" x="382.5" y="444.0903">arguments</text><polygon fill="#A80036" points="386.5,474.2891,376.5,478.2891,386.5,482.2891,382.5,478.2891" style="stroke:#A80036;stroke-width:1.0;"/><line style="stroke:#A80036;stroke-width:1.0;stroke-dasharray:2.0,2.0;" x1="380.5" x2="646.5" y1="478.2891" y2="478.2891"/><text fill="#000000" font-family="sans-serif" font-size="13" lengthAdjust="spacing" textLength="91" x="392.5" y="473.2231">function result</text><polygon fill="#A80036" points="186.5,503.4219,176.5,507.4219,186.5,511.4219,182.5,507.4219" style="stroke:#A80036;stroke-width:1.0;"/><line style="stroke:#A80036;stroke-width:1.0;stroke-dasharray:2.0,2.0;" x1="180.5" x2="374.5" y1="507.4219" y2="507.4219"/><text fill="#000000" font-family="sans-serif" font-size="13" lengthAdjust="spacing" textLength="91" x="192.5" y="502.356">function result</text><polygon fill="#A80036" points="278.5,532.5547,288.5,536.5547,278.5,540.5547,282.5,536.5547" style="stroke:#A80036;stroke-width:1.0;"/><line style="stroke:#A80036;stroke-width:1.0;" x1="175.5" x2="284.5" y1="536.5547" y2="536.5547"/><text fill="#000000" font-family="sans-serif" font-size="13" lengthAdjust="spacing" textLength="91" x="182.5" y="531.4888">function result</text><line style="stroke:#A80036;stroke-width:1.0;" x1="175.5" x2="217.5" y1="580.8203" y2="580.8203"/><line style="stroke:#A80036;stroke-width:1.0;" x1="217.5" x2="217.5" y1="580.8203" y2="593.8203"/><line style="stroke:#A80036;stroke-width:1.0;" x1="176.5" x2="217.5" y1="593.8203" y2="593.8203"/><polygon fill="#A80036" points="186.5,589.8203,176.5,593.8203,186.5,597.8203,182.5,593.8203" style="stroke:#A80036;stroke-width:1.0;"/><text fill="#000000" font-family="sans-serif" font-size="13" lengthAdjust="spacing" textLength="80" x="182.5" y="560.6216">non-function</text><text fill="#000000" font-family="sans-serif" font-size="13" lengthAdjust="spacing" textLength="75" x="182.5" y="575.7544">calculations</text><polygon fill="#A80036" points="43.5,618.9531,33.5,622.9531,43.5,626.9531,39.5,622.9531" style="stroke:#A80036;stroke-width:1.0;"/><line style="stroke:#A80036;stroke-width:1.0;stroke-dasharray:2.0,2.0;" x1="37.5" x2="174.5" y1="622.9531" y2="622.9531"/><text fill="#000000" font-family="sans-serif" font-size="13" lengthAdjust="spacing" textLength="104" x="49.5" y="617.8872">local_calc_result</text><!--MD5=[6278b2570997401b9be0268198d1a553]
@startuml
participant client
participant server
participant cache
participant supervisor
participant "Docker daemon" as daemon
participant "Docker container" as provider
participant Thinknode

client -> server: perform_local_calc

server -> server: non-function\ncalculations

server -> cache: find(function)
server <- - cache: miss

server -> supervisor: supervise calculation

supervisor -> daemon: create image
daemon -> Thinknode: pull image

supervisor -> daemon: create container
supervisor <- - daemon: container id

supervisor -> daemon: start container
daemon -> provider: start

supervisor <- - provider: registration
supervisor -> provider: arguments
supervisor <- - provider: function result

server <- - supervisor: function result

server -> cache: function result

server -> server: non-function\ncalculations

client <- - server: local_calc_result
@enduml

PlantUML version 1.2022.0(Tue Jan 11 17:16:42 CET 2022)
(GPL source distribution)
Java Runtime: OpenJDK Runtime Environment
JVM: OpenJDK 64-Bit Server VM
Default Encoding: UTF-8
Language: en
Country: null
--></g></svg>