<?xml version="1.0" encoding="UTF-8" standalone="no"?><svg xmlns="http://www.w3.org/2000/svg" xmlns:xlink="http://www.w3.org/1999/xlink" contentScriptType="application/ecmascript" contentStyleType="text/css" height="394px" preserveAspectRatio="none" style="width:574px;height:394px;background:#FFFFFF;" version="1.1" viewBox="0 0 574 394" width="574px" zoomAndPan="magnify"><defs><filter height="300%" id="f1p4ehj0nu60gk" width="300%" x="-1" y="-1"><feGaussianBlur result="blurOut" stdDeviation="2.0"/><feColorMatrix in="blurOut" result="blurOut2" type="matrix" values="0 0 0 0 0 0 0 0 0 0 0 0 0 0 0 0 0 0 .4 0"/><feOffset dx="4.0" dy="4.0" in="blurOut2" result="blurOut3"/><feBlend in="SourceGraphic" in2="blurOut3" mode="normal"/></filter></defs><g><line style="stroke:#A80036;stroke-width:1.0;stroke-dasharray:5.0,5.0;" x1="32" x2="32" y1="40.2969" y2="351.625"/><line style="stroke:#A80036;stroke-width:1.0;stroke-dasharray:5.0,5.0;" x1="321" x2="321" y1="40.2969" y2="351.625"/><line style="stroke:#A80036;stroke-width:1.0;stroke-dasharray:5.0,5.0;" x1="534.5" x2="534.5" y1="40.2969" y2="351.625"/><rect fill="#FEFECE" filter="url(#f1p4ehj0nu60gk)" height="30.2969" style="stroke:#A80036;stroke-width:1.5;" width="51" x="5" y="5"/><text fill="#000000" font-family="sans-serif" font-size="14" lengthAdjust="spacing" textLength="37" x="12" y="24.9951">client</text><rect fill="#FEFECE" filter="url(#f1p4ehj0nu60gk)" height="30.2969" style="stroke:#A80036;stroke-width:1.5;" width="51" x="5" y="350.625"/><text fill="#000000" font-family="sans-serif" font-size="14" lengthAdjust="spacing" textLength="37" x="12" y="370.6201">client</text><rect fill="#FEFECE" filter="url(#f1p4ehj0nu60gk)" height="30.2969" style="stroke:#A80036;stroke-width:1.5;" width="57" x="291" y="5"/><text fill="#000000" font-family="sans-serif" font-size="14" lengthAdjust="spacing" textLength="43" x="298" y="24.9951">server</text><rect fill="#FEFECE" filter="url(#f1p4ehj0nu60gk)" height="30.2969" style="stroke:#A80036;stroke-width:1.5;" width="57" x="291" y="350.625"/><text fill="#000000" font-family="sans-serif" font-size="14" lengthAdjust="spacing" textLength="43" x="298" y="370.6201">server</text><rect fill="#FEFECE" filter="url(#f1p4ehj0nu60gk)" height="30.2969" style="stroke:#A80036;stroke-width:1.5;" width="56" x="504.5" y="5"/><text fill="#000000" font-family="sans-serif" font-size="14" lengthAdjust="spacing" textLength="42" x="511.5" y="24.9951">cache</text><rect fill="#FEFECE" filter="url(#f1p4ehj0nu60gk)" height="30.2969" style="stroke:#A80036;stroke-width:1.5;" width="56" x="504.5" y="350.625"/><text fill="#000000" font-family="sans-serif" font-size="14" lengthAdjust="spacing" textLength="42" x="511.5" y="370.6201">cache</text><polygon fill="#A80036" points="309.5,67.4297,319.5,71.4297,309.5,75.4297,313.5,71.4297" style="stroke:#A80036;stroke-width:1.0;"/><line style="stroke:#A80036;stroke-width:1.0;" x1="32.5" x2="315.5" y1="71.4297" y2="71.4297"/><text fill="#000000" font-family="sans-serif" font-size="13" lengthAdjust="spacing" textLength="178" x="39.5" y="66.3638">post_calculation(caculation)</text><polygon fill="#A80036" points="522.5,96.5625,532.5,100.5625,522.5,104.5625,526.5,100.5625" style="stroke:#A80036;stroke-width:1.0;"/><line style="stroke:#A80036;stroke-width:1.0;" x1="321.5" x2="528.5" y1="100.5625" y2="100.5625"/><text fill="#000000" font-family="sans-serif" font-size="13" lengthAdjust="spacing" textLength="101" x="328.5" y="95.4966">find(calculation)</text><polygon fill="#A80036" points="332.5,125.6953,322.5,129.6953,332.5,133.6953,328.5,129.6953" style="stroke:#A80036;stroke-width:1.0;"/><line style="stroke:#A80036;stroke-width:1.0;stroke-dasharray:2.0,2.0;" x1="326.5" x2="533.5" y1="129.6953" y2="129.6953"/><text fill="#000000" font-family="sans-serif" font-size="13" lengthAdjust="spacing" textLength="86" x="338.5" y="124.6294">calculation_id</text><polygon fill="#A80036" points="43.5,154.8281,33.5,158.8281,43.5,162.8281,39.5,158.8281" style="stroke:#A80036;stroke-width:1.0;"/><line style="stroke:#A80036;stroke-width:1.0;stroke-dasharray:2.0,2.0;" x1="37.5" x2="320.5" y1="158.8281" y2="158.8281"/><text fill="#000000" font-family="sans-serif" font-size="13" lengthAdjust="spacing" textLength="265" x="49.5" y="153.7622">post_calculation_response(calculation_id)</text><polygon fill="#A80036" points="309.5,183.9609,319.5,187.9609,309.5,191.9609,313.5,187.9609" style="stroke:#A80036;stroke-width:1.0;"/><line style="stroke:#A80036;stroke-width:1.0;" x1="32.5" x2="315.5" y1="187.9609" y2="187.9609"/><text fill="#000000" font-family="sans-serif" font-size="13" lengthAdjust="spacing" textLength="159" x="39.5" y="182.895">iss_object(calculation_id)</text><polygon fill="#A80036" points="522.5,213.0938,532.5,217.0938,522.5,221.0938,526.5,217.0938" style="stroke:#A80036;stroke-width:1.0;"/><line style="stroke:#A80036;stroke-width:1.0;" x1="321.5" x2="528.5" y1="217.0938" y2="217.0938"/><text fill="#000000" font-family="sans-serif" font-size="13" lengthAdjust="spacing" textLength="119" x="328.5" y="212.0278">find(calculation_id)</text><polygon fill="#A80036" points="332.5,242.2266,322.5,246.2266,332.5,250.2266,328.5,246.2266" style="stroke:#A80036;stroke-width:1.0;"/><line style="stroke:#A80036;stroke-width:1.0;stroke-dasharray:2.0,2.0;" x1="326.5" x2="533.5" y1="246.2266" y2="246.2266"/><text fill="#000000" font-family="sans-serif" font-size="13" lengthAdjust="spacing" textLength="156" x="338.5" y="241.1606">calculation immutable id</text><polygon fill="#A80036" points="522.5,271.3594,532.5,275.3594,522.5,279.3594,526.5,275.3594" style="stroke:#A80036;stroke-width:1.0;"/><line style="stroke:#A80036;stroke-width:1.0;" x1="321.5" x2="528.5" y1="275.3594" y2="275.3594"/><text fill="#000000" font-family="sans-serif" font-size="13" lengthAdjust="spacing" textLength="189" x="328.5" y="270.2935">find(calculation immutable id)</text><polygon fill="#A80036" points="332.5,300.4922,322.5,304.4922,332.5,308.4922,328.5,304.4922" style="stroke:#A80036;stroke-width:1.0;"/><line style="stroke:#A80036;stroke-width:1.0;stroke-dasharray:2.0,2.0;" x1="326.5" x2="533.5" y1="304.4922" y2="304.4922"/><text fill="#000000" font-family="sans-serif" font-size="13" lengthAdjust="spacing" textLength="108" x="338.5" y="299.4263">calculation result</text><polygon fill="#A80036" points="43.5,329.625,33.5,333.625,43.5,337.625,39.5,333.625" style="stroke:#A80036;stroke-width:1.0;"/><line style="stroke:#A80036;stroke-width:1.0;stroke-dasharray:2.0,2.0;" x1="37.5" x2="320.5" y1="333.625" y2="333.625"/><text fill="#000000" font-family="sans-serif" font-size="13" lengthAdjust="spacing" textLength="247" x="49.5" y="328.5591">iss_object_response(calculation result)</text><!--MD5=[c6046745c83e8c0c2f8785b66eaf864e]
@startuml
client -> server: post_calculation(caculation)
server -> cache: find(calculation)
server <- - cache: calculation_id
client <- - server: post_calculation_response(calculation_id)

client -> server: iss_object(calculation_id)
server -> cache: find(calculation_id)
server <- - cache: calculation immutable id
server -> cache: find(calculation immutable id)
server <- - cache: calculation result
client <- - server: iss_object_response(calculation result)
@enduml

PlantUML version 1.2022.0(Tue Jan 11 17:16:42 CET 2022)
(GPL source distribution)
Java Runtime: OpenJDK Runtime Environment
JVM: OpenJDK 64-Bit Server VM
Default Encoding: UTF-8
Language: en
Country: null
--></g></svg>