<?xml version="1.0" encoding="UTF-8" standalone="no"?><svg xmlns="http://www.w3.org/2000/svg" xmlns:xlink="http://www.w3.org/1999/xlink" contentScriptType="application/ecmascript" contentStyleType="text/css" height="453px" preserveAspectRatio="none" style="width:478px;height:453px;background:#FFFFFF;" version="1.1" viewBox="0 0 478 453" width="478px" zoomAndPan="magnify"><defs><filter height="300%" id="fntlcmu952l0j" width="300%" x="-1" y="-1"><feGaussianBlur result="blurOut" stdDeviation="2.0"/><feColorMatrix in="blurOut" result="blurOut2" type="matrix" values="0 0 0 0 0 0 0 0 0 0 0 0 0 0 0 0 0 0 .4 0"/><feOffset dx="4.0" dy="4.0" in="blurOut2" result="blurOut3"/><feBlend in="SourceGraphic" in2="blurOut3" mode="normal"/></filter></defs><g><line style="stroke:#A80036;stroke-width:1.0;stroke-dasharray:5.0,5.0;" x1="32" x2="32" y1="40.2969" y2="409.8906"/><line style="stroke:#A80036;stroke-width:1.0;stroke-dasharray:5.0,5.0;" x1="185" x2="185" y1="40.2969" y2="409.8906"/><line style="stroke:#A80036;stroke-width:1.0;stroke-dasharray:5.0,5.0;" x1="336.5" x2="336.5" y1="40.2969" y2="409.8906"/><line style="stroke:#A80036;stroke-width:1.0;stroke-dasharray:5.0,5.0;" x1="422.5" x2="422.5" y1="40.2969" y2="409.8906"/><rect fill="#FEFECE" filter="url(#fntlcmu952l0j)" height="30.2969" style="stroke:#A80036;stroke-width:1.5;" width="51" x="5" y="5"/><text fill="#000000" font-family="sans-serif" font-size="14" lengthAdjust="spacing" textLength="37" x="12" y="24.9951">client</text><rect fill="#FEFECE" filter="url(#fntlcmu952l0j)" height="30.2969" style="stroke:#A80036;stroke-width:1.5;" width="51" x="5" y="408.8906"/><text fill="#000000" font-family="sans-serif" font-size="14" lengthAdjust="spacing" textLength="37" x="12" y="428.8857">client</text><rect fill="#FEFECE" filter="url(#fntlcmu952l0j)" height="30.2969" style="stroke:#A80036;stroke-width:1.5;" width="57" x="155" y="5"/><text fill="#000000" font-family="sans-serif" font-size="14" lengthAdjust="spacing" textLength="43" x="162" y="24.9951">server</text><rect fill="#FEFECE" filter="url(#fntlcmu952l0j)" height="30.2969" style="stroke:#A80036;stroke-width:1.5;" width="57" x="155" y="408.8906"/><text fill="#000000" font-family="sans-serif" font-size="14" lengthAdjust="spacing" textLength="43" x="162" y="428.8857">server</text><rect fill="#FEFECE" filter="url(#fntlcmu952l0j)" height="30.2969" style="stroke:#A80036;stroke-width:1.5;" width="56" x="306.5" y="5"/><text fill="#000000" font-family="sans-serif" font-size="14" lengthAdjust="spacing" textLength="42" x="313.5" y="24.9951">cache</text><rect fill="#FEFECE" filter="url(#fntlcmu952l0j)" height="30.2969" style="stroke:#A80036;stroke-width:1.5;" width="56" x="306.5" y="408.8906"/><text fill="#000000" font-family="sans-serif" font-size="14" lengthAdjust="spacing" textLength="42" x="313.5" y="428.8857">cache</text><rect fill="#FEFECE" filter="url(#fntlcmu952l0j)" height="30.2969" style="stroke:#A80036;stroke-width:1.5;" width="88" x="376.5" y="5"/><text fill="#000000" font-family="sans-serif" font-size="14" lengthAdjust="spacing" textLength="74" x="383.5" y="24.9951">Thinknode</text><rect fill="#FEFECE" filter="url(#fntlcmu952l0j)" height="30.2969" style="stroke:#A80036;stroke-width:1.5;" width="88" x="376.5" y="408.8906"/><text fill="#000000" font-family="sans-serif" font-size="14" lengthAdjust="spacing" textLength="74" x="383.5" y="428.8857">Thinknode</text><polygon fill="#A80036" points="173.5,67.4297,183.5,71.4297,173.5,75.4297,177.5,71.4297" style="stroke:#A80036;stroke-width:1.0;"/><line style="stroke:#A80036;stroke-width:1.0;" x1="32.5" x2="179.5" y1="71.4297" y2="71.4297"/><text fill="#000000" font-family="sans-serif" font-size="13" lengthAdjust="spacing" textLength="63" x="39.5" y="66.3638">iss_object</text><polygon fill="#A80036" points="324.5,96.5625,334.5,100.5625,324.5,104.5625,328.5,100.5625" style="stroke:#A80036;stroke-width:1.0;"/><line style="stroke:#A80036;stroke-width:1.0;" x1="185.5" x2="330.5" y1="100.5625" y2="100.5625"/><text fill="#000000" font-family="sans-serif" font-size="13" lengthAdjust="spacing" textLength="87" x="192.5" y="95.4966">find(object id)</text><polygon fill="#A80036" points="196.5,125.6953,186.5,129.6953,196.5,133.6953,192.5,129.6953" style="stroke:#A80036;stroke-width:1.0;"/><line style="stroke:#A80036;stroke-width:1.0;stroke-dasharray:2.0,2.0;" x1="190.5" x2="335.5" y1="129.6953" y2="129.6953"/><text fill="#000000" font-family="sans-serif" font-size="13" lengthAdjust="spacing" textLength="30" x="202.5" y="124.6294">miss</text><polygon fill="#A80036" points="410.5,154.8281,420.5,158.8281,410.5,162.8281,414.5,158.8281" style="stroke:#A80036;stroke-width:1.0;"/><line style="stroke:#A80036;stroke-width:1.0;" x1="185.5" x2="416.5" y1="158.8281" y2="158.8281"/><text fill="#000000" font-family="sans-serif" font-size="13" lengthAdjust="spacing" textLength="142" x="192.5" y="153.7622">GET /iss/:id/immutable</text><polygon fill="#A80036" points="196.5,183.9609,186.5,187.9609,196.5,191.9609,192.5,187.9609" style="stroke:#A80036;stroke-width:1.0;"/><line style="stroke:#A80036;stroke-width:1.0;stroke-dasharray:2.0,2.0;" x1="190.5" x2="421.5" y1="187.9609" y2="187.9609"/><text fill="#000000" font-family="sans-serif" font-size="13" lengthAdjust="spacing" textLength="84" x="202.5" y="182.895">immutable id</text><polygon fill="#A80036" points="324.5,213.0938,334.5,217.0938,324.5,221.0938,328.5,217.0938" style="stroke:#A80036;stroke-width:1.0;"/><line style="stroke:#A80036;stroke-width:1.0;" x1="185.5" x2="330.5" y1="217.0938" y2="217.0938"/><text fill="#000000" font-family="sans-serif" font-size="13" lengthAdjust="spacing" textLength="127" x="192.5" y="212.0278">store(immutable id)</text><polygon fill="#A80036" points="324.5,242.2266,334.5,246.2266,324.5,250.2266,328.5,246.2266" style="stroke:#A80036;stroke-width:1.0;"/><line style="stroke:#A80036;stroke-width:1.0;" x1="185.5" x2="330.5" y1="246.2266" y2="246.2266"/><text fill="#000000" font-family="sans-serif" font-size="13" lengthAdjust="spacing" textLength="117" x="192.5" y="241.1606">find(immutable id)</text><polygon fill="#A80036" points="196.5,271.3594,186.5,275.3594,196.5,279.3594,192.5,275.3594" style="stroke:#A80036;stroke-width:1.0;"/><line style="stroke:#A80036;stroke-width:1.0;stroke-dasharray:2.0,2.0;" x1="190.5" x2="335.5" y1="275.3594" y2="275.3594"/><text fill="#000000" font-family="sans-serif" font-size="13" lengthAdjust="spacing" textLength="30" x="202.5" y="270.2935">miss</text><polygon fill="#A80036" points="410.5,300.4922,420.5,304.4922,410.5,308.4922,414.5,304.4922" style="stroke:#A80036;stroke-width:1.0;"/><line style="stroke:#A80036;stroke-width:1.0;" x1="185.5" x2="416.5" y1="304.4922" y2="304.4922"/><text fill="#000000" font-family="sans-serif" font-size="13" lengthAdjust="spacing" textLength="142" x="192.5" y="299.4263">GET /iss/immutable/:id</text><polygon fill="#A80036" points="196.5,329.625,186.5,333.625,196.5,337.625,192.5,333.625" style="stroke:#A80036;stroke-width:1.0;"/><line style="stroke:#A80036;stroke-width:1.0;stroke-dasharray:2.0,2.0;" x1="190.5" x2="421.5" y1="333.625" y2="333.625"/><text fill="#000000" font-family="sans-serif" font-size="13" lengthAdjust="spacing" textLength="72" x="202.5" y="328.5591">object data</text><polygon fill="#A80036" points="43.5,358.7578,33.5,362.7578,43.5,366.7578,39.5,362.7578" style="stroke:#A80036;stroke-width:1.0;"/><line style="stroke:#A80036;stroke-width:1.0;stroke-dasharray:2.0,2.0;" x1="37.5" x2="184.5" y1="362.7578" y2="362.7578"/><text fill="#000000" font-family="sans-serif" font-size="13" lengthAdjust="spacing" textLength="129" x="49.5" y="357.6919">iss_object_response</text><polygon fill="#A80036" points="324.5,387.8906,334.5,391.8906,324.5,395.8906,328.5,391.8906" style="stroke:#A80036;stroke-width:1.0;"/><line style="stroke:#A80036;stroke-width:1.0;" x1="185.5" x2="330.5" y1="391.8906" y2="391.8906"/><text fill="#000000" font-family="sans-serif" font-size="13" lengthAdjust="spacing" textLength="115" x="192.5" y="386.8247">store(object data)</text><!--MD5=[b1d4479d27d496742847b5ee2ff99a8f]
@startuml
client -> server: iss_object

server -> cache: find(object id)
server <- - cache: miss
server -> Thinknode: GET /iss/:id/immutable
server <- - Thinknode: immutable id
server -> cache: store(immutable id)

server -> cache: find(immutable id)
server <- - cache: miss

server -> Thinknode: GET /iss/immutable/:id
server <- - Thinknode: object data

client <- - server: iss_object_response

server -> cache: store(object data)
@enduml

PlantUML version 1.2022.0(Tue Jan 11 17:16:42 CET 2022)
(GPL source distribution)
Java Runtime: OpenJDK Runtime Environment
JVM: OpenJDK 64-Bit Server VM
Default Encoding: UTF-8
Language: en
Country: null
--></g></svg>