<?xml version="1.0" encoding="UTF-8" standalone="no"?><svg xmlns="http://www.w3.org/2000/svg" xmlns:xlink="http://www.w3.org/1999/xlink" contentScriptType="application/ecmascript" contentStyleType="text/css" height="307px" preserveAspectRatio="none" style="width:575px;height:307px;background:#FFFFFF;" version="1.1" viewBox="0 0 575 307" width="575px" zoomAndPan="magnify"><defs><filter height="300%" id="fksgmm1plzyas" width="300%" x="-1" y="-1"><feGaussianBlur result="blurOut" stdDeviation="2.0"/><feColorMatrix in="blurOut" result="blurOut2" type="matrix" values="0 0 0 0 0 0 0 0 0 0 0 0 0 0 0 0 0 0 .4 0"/><feOffset dx="4.0" dy="4.0" in="blurOut2" result="blurOut3"/><feBlend in="SourceGraphic" in2="blurOut3" mode="normal"/></filter></defs><g><line style="stroke:#A80036;stroke-width:1.0;stroke-dasharray:5.0,5.0;" x1="32" x2="32" y1="40.2969" y2="264.2266"/><line style="stroke:#A80036;stroke-width:1.0;stroke-dasharray:5.0,5.0;" x1="255" x2="255" y1="40.2969" y2="264.2266"/><line style="stroke:#A80036;stroke-width:1.0;stroke-dasharray:5.0,5.0;" x1="433.5" x2="433.5" y1="40.2969" y2="264.2266"/><line style="stroke:#A80036;stroke-width:1.0;stroke-dasharray:5.0,5.0;" x1="519.5" x2="519.5" y1="40.2969" y2="264.2266"/><rect fill="#FEFECE" filter="url(#fksgmm1plzyas)" height="30.2969" style="stroke:#A80036;stroke-width:1.5;" width="51" x="5" y="5"/><text fill="#000000" font-family="sans-serif" font-size="14" lengthAdjust="spacing" textLength="37" x="12" y="24.9951">client</text><rect fill="#FEFECE" filter="url(#fksgmm1plzyas)" height="30.2969" style="stroke:#A80036;stroke-width:1.5;" width="51" x="5" y="263.2266"/><text fill="#000000" font-family="sans-serif" font-size="14" lengthAdjust="spacing" textLength="37" x="12" y="283.2217">client</text><rect fill="#FEFECE" filter="url(#fksgmm1plzyas)" height="30.2969" style="stroke:#A80036;stroke-width:1.5;" width="57" x="225" y="5"/><text fill="#000000" font-family="sans-serif" font-size="14" lengthAdjust="spacing" textLength="43" x="232" y="24.9951">server</text><rect fill="#FEFECE" filter="url(#fksgmm1plzyas)" height="30.2969" style="stroke:#A80036;stroke-width:1.5;" width="57" x="225" y="263.2266"/><text fill="#000000" font-family="sans-serif" font-size="14" lengthAdjust="spacing" textLength="43" x="232" y="283.2217">server</text><rect fill="#FEFECE" filter="url(#fksgmm1plzyas)" height="30.2969" style="stroke:#A80036;stroke-width:1.5;" width="56" x="403.5" y="5"/><text fill="#000000" font-family="sans-serif" font-size="14" lengthAdjust="spacing" textLength="42" x="410.5" y="24.9951">cache</text><rect fill="#FEFECE" filter="url(#fksgmm1plzyas)" height="30.2969" style="stroke:#A80036;stroke-width:1.5;" width="56" x="403.5" y="263.2266"/><text fill="#000000" font-family="sans-serif" font-size="14" lengthAdjust="spacing" textLength="42" x="410.5" y="283.2217">cache</text><rect fill="#FEFECE" filter="url(#fksgmm1plzyas)" height="30.2969" style="stroke:#A80036;stroke-width:1.5;" width="88" x="473.5" y="5"/><text fill="#000000" font-family="sans-serif" font-size="14" lengthAdjust="spacing" textLength="74" x="480.5" y="24.9951">Thinknode</text><rect fill="#FEFECE" filter="url(#fksgmm1plzyas)" height="30.2969" style="stroke:#A80036;stroke-width:1.5;" width="88" x="473.5" y="263.2266"/><text fill="#000000" font-family="sans-serif" font-size="14" lengthAdjust="spacing" textLength="74" x="480.5" y="283.2217">Thinknode</text><polygon fill="#A80036" points="243.5,67.4297,253.5,71.4297,243.5,75.4297,247.5,71.4297" style="stroke:#A80036;stroke-width:1.0;"/><line style="stroke:#A80036;stroke-width:1.0;" x1="32.5" x2="249.5" y1="71.4297" y2="71.4297"/><text fill="#000000" font-family="sans-serif" font-size="13" lengthAdjust="spacing" textLength="133" x="39.5" y="66.3638">iss_object_metadata</text><polygon fill="#A80036" points="421.5,96.5625,431.5,100.5625,421.5,104.5625,425.5,100.5625" style="stroke:#A80036;stroke-width:1.0;"/><line style="stroke:#A80036;stroke-width:1.0;" x1="255.5" x2="427.5" y1="100.5625" y2="100.5625"/><text fill="#000000" font-family="sans-serif" font-size="13" lengthAdjust="spacing" textLength="154" x="262.5" y="95.4966">find metadata(object id)</text><polygon fill="#A80036" points="266.5,125.6953,256.5,129.6953,266.5,133.6953,262.5,129.6953" style="stroke:#A80036;stroke-width:1.0;"/><line style="stroke:#A80036;stroke-width:1.0;stroke-dasharray:2.0,2.0;" x1="260.5" x2="432.5" y1="129.6953" y2="129.6953"/><text fill="#000000" font-family="sans-serif" font-size="13" lengthAdjust="spacing" textLength="30" x="272.5" y="124.6294">miss</text><polygon fill="#A80036" points="507.5,154.8281,517.5,158.8281,507.5,162.8281,511.5,158.8281" style="stroke:#A80036;stroke-width:1.0;"/><line style="stroke:#A80036;stroke-width:1.0;" x1="255.5" x2="513.5" y1="158.8281" y2="158.8281"/><text fill="#000000" font-family="sans-serif" font-size="13" lengthAdjust="spacing" textLength="81" x="262.5" y="153.7622">HEAD /iss/:id</text><polygon fill="#A80036" points="266.5,183.9609,256.5,187.9609,266.5,191.9609,262.5,187.9609" style="stroke:#A80036;stroke-width:1.0;"/><line style="stroke:#A80036;stroke-width:1.0;stroke-dasharray:2.0,2.0;" x1="260.5" x2="518.5" y1="187.9609" y2="187.9609"/><text fill="#000000" font-family="sans-serif" font-size="13" lengthAdjust="spacing" textLength="63" x="272.5" y="182.895">metadata</text><polygon fill="#A80036" points="43.5,213.0938,33.5,217.0938,43.5,221.0938,39.5,217.0938" style="stroke:#A80036;stroke-width:1.0;"/><line style="stroke:#A80036;stroke-width:1.0;stroke-dasharray:2.0,2.0;" x1="37.5" x2="254.5" y1="217.0938" y2="217.0938"/><text fill="#000000" font-family="sans-serif" font-size="13" lengthAdjust="spacing" textLength="199" x="49.5" y="212.0278">iss_object_metadata_response</text><polygon fill="#A80036" points="421.5,242.2266,431.5,246.2266,421.5,250.2266,425.5,246.2266" style="stroke:#A80036;stroke-width:1.0;"/><line style="stroke:#A80036;stroke-width:1.0;" x1="255.5" x2="427.5" y1="246.2266" y2="246.2266"/><text fill="#000000" font-family="sans-serif" font-size="13" lengthAdjust="spacing" textLength="106" x="262.5" y="241.1606">store(metadata)</text><!--MD5=[10789e1f04ef70a7089dae99ac8aca48]
@startuml
client -> server: iss_object_metadata

server -> cache: find metadata(object id)
server <- - cache: miss
server -> Thinknode: HEAD /iss/:id
server <- - Thinknode: metadata

client <- - server: iss_object_metadata_response

server -> cache: store(metadata)
@enduml

PlantUML version 1.2022.0(Tue Jan 11 17:16:42 CET 2022)
(GPL source distribution)
Java Runtime: OpenJDK Runtime Environment
JVM: OpenJDK 64-Bit Server VM
Default Encoding: UTF-8
Language: en
Country: null
--></g></svg>