<?xml version="1.0" encoding="UTF-8" standalone="no"?><svg xmlns="http://www.w3.org/2000/svg" xmlns:xlink="http://www.w3.org/1999/xlink" contentScriptType="application/ecmascript" contentStyleType="text/css" height="210px" preserveAspectRatio="none" style="width:332px;height:210px;background:#FFFFFF;" version="1.1" viewBox="0 0 332 210" width="332px" zoomAndPan="magnify"><defs><filter height="300%" id="f1dfcotthnbtb7" width="300%" x="-1" y="-1"><feGaussianBlur result="blurOut" stdDeviation="2.0"/><feColorMatrix in="blurOut" result="blurOut2" type="matrix" values="0 0 0 0 0 0 0 0 0 0 0 0 0 0 0 0 0 0 .4 0"/><feOffset dx="4.0" dy="4.0" in="blurOut2" result="blurOut3"/><feBlend in="SourceGraphic" in2="blurOut3" mode="normal"/></filter></defs><g><!--MD5=[236c6906ab9c8c3e2a0bfea8c032dee8]
entity clientA--><ellipse cx="31" cy="14" fill="#FEFECE" filter="url(#f1dfcotthnbtb7)" rx="8" ry="8" style="stroke:#A80036;stroke-width:1.5;"/><path d="M31,22 L31,49 M18,30 L44,30 M31,49 L18,64 M31,49 L44,64 " fill="none" filter="url(#f1dfcotthnbtb7)" style="stroke:#A80036;stroke-width:1.5;"/><text fill="#000000" font-family="sans-serif" font-size="14" lengthAdjust="spacing" textLength="50" x="6" y="82.4951">client A</text><!--MD5=[477065f53be2d93d21e22ad112ef2813]
entity clientB--><ellipse cx="117" cy="14" fill="#FEFECE" filter="url(#f1dfcotthnbtb7)" rx="8" ry="8" style="stroke:#A80036;stroke-width:1.5;"/><path d="M117,22 L117,49 M104,30 L130,30 M117,49 L104,64 M117,49 L130,64 " fill="none" filter="url(#f1dfcotthnbtb7)" style="stroke:#A80036;stroke-width:1.5;"/><text fill="#000000" font-family="sans-serif" font-size="14" lengthAdjust="spacing" textLength="51" x="91.5" y="82.4951">client B</text><!--MD5=[db8f2d2b57de9a7f307ed21963609a5c]
entity clientC--><ellipse cx="203" cy="14" fill="#FEFECE" filter="url(#f1dfcotthnbtb7)" rx="8" ry="8" style="stroke:#A80036;stroke-width:1.5;"/><path d="M203,22 L203,49 M190,30 L216,30 M203,49 L190,64 M203,49 L216,64 " fill="none" filter="url(#f1dfcotthnbtb7)" style="stroke:#A80036;stroke-width:1.5;"/><text fill="#000000" font-family="sans-serif" font-size="14" lengthAdjust="spacing" textLength="51" x="177.5" y="82.4951">client C</text><!--MD5=[6334daef31667a5d4fab5d7042f37453]
entity CRADLE--><rect fill="#FEFECE" filter="url(#f1dfcotthnbtb7)" height="36.2969" style="stroke:#A80036;stroke-width:1.5;" width="76" x="79" y="162.5"/><text fill="#000000" font-family="sans-serif" font-size="14" lengthAdjust="spacing" textLength="56" x="89" y="185.4951">CRADLE</text><!--MD5=[d844e1b680192e2df2a019bbb7467a05]
link clientA to CRADLE--><path d="M56.11,84.97 C71.5,108.87 90.62,138.55 103.28,158.21 " fill="none" id="clientA-to-CRADLE" style="stroke:#A80036;stroke-width:1.0;"/><polygon fill="#A80036" points="106.04,162.49,104.5529,152.7541,103.3427,158.2799,97.8168,157.0697,106.04,162.49" style="stroke:#A80036;stroke-width:1.0;"/><!--MD5=[46527c9020683c9d73e76603e1ce722c]
link clientB to CRADLE--><path d="M117,85.69 C117,109.02 117,137.65 117,157.1 " fill="none" id="clientB-to-CRADLE" style="stroke:#A80036;stroke-width:1.0;"/><polygon fill="#A80036" points="117,162.33,121,153.33,117,157.33,113,153.33,117,162.33" style="stroke:#A80036;stroke-width:1.0;"/><!--MD5=[517d998f072fce7824b763f2b552224b]
link clientC to CRADLE--><path d="M177.43,85.69 C162.15,109.42 143.33,138.63 130.79,158.09 " fill="none" id="clientC-to-CRADLE" style="stroke:#A80036;stroke-width:1.0;"/><polygon fill="#A80036" points="128.06,162.33,136.3045,156.9422,130.7739,158.1306,129.5855,152.6,128.06,162.33" style="stroke:#A80036;stroke-width:1.0;"/><text fill="#000000" font-family="sans-serif" font-size="13" lengthAdjust="spacing" textLength="166" x="158" y="128.5669">websocket / MessagePack</text><!--MD5=[9c63c2f6196a1ac8b3d3ff846a3c9add]
@startuml
actor "client A" as clientA
actor "client B" as clientB
actor "client C" as clientC
agent CRADLE

clientA -down-> CRADLE
clientB -down-> CRADLE
clientC -down-> CRADLE: websocket / MessagePack
@enduml

PlantUML version 1.2022.0(Tue Jan 11 17:16:42 CET 2022)
(GPL source distribution)
Java Runtime: OpenJDK Runtime Environment
JVM: OpenJDK 64-Bit Server VM
Default Encoding: UTF-8
Language: en
Country: null
--></g></svg>