<?xml version="1.0" encoding="UTF-8" standalone="no"?><svg xmlns="http://www.w3.org/2000/svg" xmlns:xlink="http://www.w3.org/1999/xlink" contentScriptType="application/ecmascript" contentStyleType="text/css" height="1217px" preserveAspectRatio="none" style="width:887px;height:1217px;background:#FFFFFF;" version="1.1" viewBox="0 0 887 1217" width="887px" zoomAndPan="magnify"><defs><filter height="300%" id="f1jjptofgye98t" width="300%" x="-1" y="-1"><feGaussianBlur result="blurOut" stdDeviation="2.0"/><feColorMatrix in="blurOut" result="blurOut2" type="matrix" values="0 0 0 0 0 0 0 0 0 0 0 0 0 0 0 0 0 0 .4 0"/><feOffset dx="4.0" dy="4.0" in="blurOut2" result="blurOut3"/><feBlend in="SourceGraphic" in2="blurOut3" mode="normal"/></filter></defs><g><line style="stroke:#A80036;stroke-width:1.0;stroke-dasharray:5.0,5.0;" x1="32" x2="32" y1="40.2969" y2="1174.0781"/><line style="stroke:#A80036;stroke-width:1.0;stroke-dasharray:5.0,5.0;" x1="321" x2="321" y1="40.2969" y2="1174.0781"/><line style="stroke:#A80036;stroke-width:1.0;stroke-dasharray:5.0,5.0;" x1="496.5" x2="496.5" y1="40.2969" y2="1174.0781"/><line style="stroke:#A80036;stroke-width:1.0;stroke-dasharray:5.0,5.0;" x1="752.5" x2="752.5" y1="40.2969" y2="1174.0781"/><rect fill="#FEFECE" filter="url(#f1jjptofgye98t)" height="30.2969" style="stroke:#A80036;stroke-width:1.5;" width="51" x="5" y="5"/><text fill="#000000" font-family="sans-serif" font-size="14" lengthAdjust="spacing" textLength="37" x="12" y="24.9951">client</text><rect fill="#FEFECE" filter="url(#f1jjptofgye98t)" height="30.2969" style="stroke:#A80036;stroke-width:1.5;" width="51" x="5" y="1173.0781"/><text fill="#000000" font-family="sans-serif" font-size="14" lengthAdjust="spacing" textLength="37" x="12" y="1193.0732">client</text><rect fill="#FEFECE" filter="url(#f1jjptofgye98t)" height="30.2969" style="stroke:#A80036;stroke-width:1.5;" width="57" x="291" y="5"/><text fill="#000000" font-family="sans-serif" font-size="14" lengthAdjust="spacing" textLength="43" x="298" y="24.9951">server</text><rect fill="#FEFECE" filter="url(#f1jjptofgye98t)" height="30.2969" style="stroke:#A80036;stroke-width:1.5;" width="57" x="291" y="1173.0781"/><text fill="#000000" font-family="sans-serif" font-size="14" lengthAdjust="spacing" textLength="43" x="298" y="1193.0732">server</text><rect fill="#FEFECE" filter="url(#f1jjptofgye98t)" height="30.2969" style="stroke:#A80036;stroke-width:1.5;" width="56" x="466.5" y="5"/><text fill="#000000" font-family="sans-serif" font-size="14" lengthAdjust="spacing" textLength="42" x="473.5" y="24.9951">cache</text><rect fill="#FEFECE" filter="url(#f1jjptofgye98t)" height="30.2969" style="stroke:#A80036;stroke-width:1.5;" width="56" x="466.5" y="1173.0781"/><text fill="#000000" font-family="sans-serif" font-size="14" lengthAdjust="spacing" textLength="42" x="473.5" y="1193.0732">cache</text><rect fill="#FEFECE" filter="url(#f1jjptofgye98t)" height="30.2969" style="stroke:#A80036;stroke-width:1.5;" width="88" x="706.5" y="5"/><text fill="#000000" font-family="sans-serif" font-size="14" lengthAdjust="spacing" textLength="74" x="713.5" y="24.9951">Thinknode</text><rect fill="#FEFECE" filter="url(#f1jjptofgye98t)" height="30.2969" style="stroke:#A80036;stroke-width:1.5;" width="88" x="706.5" y="1173.0781"/><text fill="#000000" font-family="sans-serif" font-size="14" lengthAdjust="spacing" textLength="74" x="713.5" y="1193.0732">Thinknode</text><polygon fill="#A80036" points="309.5,67.4297,319.5,71.4297,309.5,75.4297,313.5,71.4297" style="stroke:#A80036;stroke-width:1.0;"/><line style="stroke:#A80036;stroke-width:1.0;" x1="32.5" x2="315.5" y1="71.4297" y2="71.4297"/><text fill="#000000" font-family="sans-serif" font-size="13" lengthAdjust="spacing" textLength="181" x="39.5" y="66.3638">post_calculation(calculation)</text><polygon fill="#A80036" points="484.5,96.5625,494.5,100.5625,484.5,104.5625,488.5,100.5625" style="stroke:#A80036;stroke-width:1.0;"/><line style="stroke:#A80036;stroke-width:1.0;" x1="321.5" x2="490.5" y1="100.5625" y2="100.5625"/><text fill="#000000" font-family="sans-serif" font-size="13" lengthAdjust="spacing" textLength="101" x="328.5" y="95.4966">find(calculation)</text><polygon fill="#A80036" points="332.5,125.6953,322.5,129.6953,332.5,133.6953,328.5,129.6953" style="stroke:#A80036;stroke-width:1.0;"/><line style="stroke:#A80036;stroke-width:1.0;stroke-dasharray:2.0,2.0;" x1="326.5" x2="495.5" y1="129.6953" y2="129.6953"/><text fill="#000000" font-family="sans-serif" font-size="13" lengthAdjust="spacing" textLength="30" x="338.5" y="124.6294">miss</text><polygon fill="#A80036" points="740.5,154.8281,750.5,158.8281,740.5,162.8281,744.5,158.8281" style="stroke:#A80036;stroke-width:1.0;"/><line style="stroke:#A80036;stroke-width:1.0;" x1="321.5" x2="746.5" y1="158.8281" y2="158.8281"/><text fill="#000000" font-family="sans-serif" font-size="13" lengthAdjust="spacing" textLength="199" x="328.5" y="153.7622">POST /iss/dynamic (calculation)</text><polygon fill="#A80036" points="332.5,183.9609,322.5,187.9609,332.5,191.9609,328.5,187.9609" style="stroke:#A80036;stroke-width:1.0;"/><line style="stroke:#A80036;stroke-width:1.0;stroke-dasharray:2.0,2.0;" x1="326.5" x2="751.5" y1="187.9609" y2="187.9609"/><text fill="#000000" font-family="sans-serif" font-size="13" lengthAdjust="spacing" textLength="157" x="338.5" y="182.895">calculation_data_id=123</text><polygon fill="#A80036" points="740.5,213.0938,750.5,217.0938,740.5,221.0938,744.5,217.0938" style="stroke:#A80036;stroke-width:1.0;"/><line style="stroke:#A80036;stroke-width:1.0;" x1="321.5" x2="746.5" y1="217.0938" y2="217.0938"/><text fill="#000000" font-family="sans-serif" font-size="13" lengthAdjust="spacing" textLength="95" x="328.5" y="212.0278">POST /calc/123</text><polygon fill="#A80036" points="332.5,242.2266,322.5,246.2266,332.5,250.2266,328.5,246.2266" style="stroke:#A80036;stroke-width:1.0;"/><line style="stroke:#A80036;stroke-width:1.0;stroke-dasharray:2.0,2.0;" x1="326.5" x2="751.5" y1="246.2266" y2="246.2266"/><text fill="#000000" font-family="sans-serif" font-size="13" lengthAdjust="spacing" textLength="121" x="338.5" y="241.1606">calculation_id=456</text><polygon fill="#A80036" points="43.5,271.3594,33.5,275.3594,43.5,279.3594,39.5,275.3594" style="stroke:#A80036;stroke-width:1.0;"/><line style="stroke:#A80036;stroke-width:1.0;stroke-dasharray:2.0,2.0;" x1="37.5" x2="320.5" y1="275.3594" y2="275.3594"/><text fill="#000000" font-family="sans-serif" font-size="13" lengthAdjust="spacing" textLength="265" x="49.5" y="270.2935">post_calculation_response(calculation_id)</text><polygon fill="#A80036" points="484.5,300.4922,494.5,304.4922,484.5,308.4922,488.5,304.4922" style="stroke:#A80036;stroke-width:1.0;"/><line style="stroke:#A80036;stroke-width:1.0;" x1="321.5" x2="490.5" y1="304.4922" y2="304.4922"/><text fill="#000000" font-family="sans-serif" font-size="13" lengthAdjust="spacing" textLength="129" x="328.5" y="299.4263">store(calculation_id)</text><polygon fill="#A80036" points="309.5,329.625,319.5,333.625,309.5,337.625,313.5,333.625" style="stroke:#A80036;stroke-width:1.0;"/><line style="stroke:#A80036;stroke-width:1.0;" x1="32.5" x2="315.5" y1="333.625" y2="333.625"/><text fill="#000000" font-family="sans-serif" font-size="13" lengthAdjust="spacing" textLength="165" x="39.5" y="328.5591">iss_object(object_id=456)</text><polygon fill="#A80036" points="740.5,358.7578,750.5,362.7578,740.5,366.7578,744.5,362.7578" style="stroke:#A80036;stroke-width:1.0;"/><line style="stroke:#A80036;stroke-width:1.0;" x1="321.5" x2="746.5" y1="362.7578" y2="362.7578"/><text fill="#000000" font-family="sans-serif" font-size="13" lengthAdjust="spacing" textLength="151" x="328.5" y="357.6919">GET /iss/456/immutable</text><polygon fill="#A80036" points="332.5,387.8906,322.5,391.8906,332.5,395.8906,328.5,391.8906" style="stroke:#A80036;stroke-width:1.0;"/><line style="stroke:#A80036;stroke-width:1.0;stroke-dasharray:2.0,2.0;" x1="326.5" x2="751.5" y1="391.8906" y2="391.8906"/><text fill="#000000" font-family="sans-serif" font-size="13" lengthAdjust="spacing" textLength="24" x="338.5" y="386.8247">202</text><polygon fill="#A80036" points="740.5,417.0234,750.5,421.0234,740.5,425.0234,744.5,421.0234" style="stroke:#A80036;stroke-width:1.0;"/><line style="stroke:#A80036;stroke-width:1.0;" x1="321.5" x2="746.5" y1="421.0234" y2="421.0234"/><text fill="#000000" font-family="sans-serif" font-size="13" lengthAdjust="spacing" textLength="130" x="328.5" y="415.9575">GET /calc/456/status</text><polygon fill="#A80036" points="332.5,446.1563,322.5,450.1563,332.5,454.1563,328.5,450.1563" style="stroke:#A80036;stroke-width:1.0;"/><line style="stroke:#A80036;stroke-width:1.0;stroke-dasharray:2.0,2.0;" x1="326.5" x2="751.5" y1="450.1563" y2="450.1563"/><text fill="#000000" font-family="sans-serif" font-size="13" lengthAdjust="spacing" textLength="110" x="338.5" y="445.0903">queued+pending</text><polygon fill="#A80036" points="740.5,475.2891,750.5,479.2891,740.5,483.2891,744.5,479.2891" style="stroke:#A80036;stroke-width:1.0;"/><line style="stroke:#A80036;stroke-width:1.0;" x1="321.5" x2="746.5" y1="479.2891" y2="479.2891"/><text fill="#000000" font-family="sans-serif" font-size="13" lengthAdjust="spacing" textLength="387" x="328.5" y="474.2231">GET /calc/456/status?queued&amp;queued=ready&amp;timeout=120</text><line style="stroke:#A80036;stroke-width:1.0;" x1="752.5" x2="794.5" y1="508.4219" y2="508.4219"/><line style="stroke:#A80036;stroke-width:1.0;" x1="794.5" x2="794.5" y1="508.4219" y2="521.4219"/><line style="stroke:#A80036;stroke-width:1.0;" x1="753.5" x2="794.5" y1="521.4219" y2="521.4219"/><polygon fill="#A80036" points="763.5,517.4219,753.5,521.4219,763.5,525.4219,759.5,521.4219" style="stroke:#A80036;stroke-width:1.0;"/><text fill="#000000" font-family="sans-serif" font-size="13" lengthAdjust="spacing" textLength="112" x="759.5" y="503.356">queueing finished</text><line style="stroke:#A80036;stroke-width:1.0;" x1="752.5" x2="794.5" y1="550.5547" y2="550.5547"/><line style="stroke:#A80036;stroke-width:1.0;" x1="794.5" x2="794.5" y1="550.5547" y2="563.5547"/><line style="stroke:#A80036;stroke-width:1.0;" x1="753.5" x2="794.5" y1="563.5547" y2="563.5547"/><polygon fill="#A80036" points="763.5,559.5547,753.5,563.5547,763.5,567.5547,759.5,563.5547" style="stroke:#A80036;stroke-width:1.0;"/><text fill="#000000" font-family="sans-serif" font-size="13" lengthAdjust="spacing" textLength="118" x="759.5" y="545.4888">started calculation</text><polygon fill="#A80036" points="332.5,588.6875,322.5,592.6875,332.5,596.6875,328.5,592.6875" style="stroke:#A80036;stroke-width:1.0;"/><line style="stroke:#A80036;stroke-width:1.0;stroke-dasharray:2.0,2.0;" x1="326.5" x2="751.5" y1="592.6875" y2="592.6875"/><text fill="#000000" font-family="sans-serif" font-size="13" lengthAdjust="spacing" textLength="68" x="338.5" y="587.6216">calculating</text><polygon fill="#A80036" points="740.5,617.8203,750.5,621.8203,740.5,625.8203,744.5,621.8203" style="stroke:#A80036;stroke-width:1.0;"/><line style="stroke:#A80036;stroke-width:1.0;" x1="321.5" x2="746.5" y1="621.8203" y2="621.8203"/><text fill="#000000" font-family="sans-serif" font-size="13" lengthAdjust="spacing" textLength="407" x="328.5" y="616.7544">GET /calc/456/status?calculating&amp;progress=0.00&amp;timeout=120</text><polygon fill="#A80036" points="332.5,646.9531,322.5,650.9531,332.5,654.9531,328.5,650.9531" style="stroke:#A80036;stroke-width:1.0;"/><line style="stroke:#A80036;stroke-width:1.0;stroke-dasharray:2.0,2.0;" x1="326.5" x2="751.5" y1="650.9531" y2="650.9531"/><text fill="#000000" font-family="sans-serif" font-size="13" lengthAdjust="spacing" textLength="68" x="338.5" y="645.8872">calculating</text><polygon fill="#A80036" points="740.5,676.0859,750.5,680.0859,740.5,684.0859,744.5,680.0859" style="stroke:#A80036;stroke-width:1.0;"/><line style="stroke:#A80036;stroke-width:1.0;" x1="321.5" x2="746.5" y1="680.0859" y2="680.0859"/><text fill="#000000" font-family="sans-serif" font-size="13" lengthAdjust="spacing" textLength="407" x="328.5" y="675.02">GET /calc/456/status?calculating&amp;progress=0.01&amp;timeout=120</text><line style="stroke:#A80036;stroke-width:1.0;" x1="752.5" x2="794.5" y1="709.2188" y2="709.2188"/><line style="stroke:#A80036;stroke-width:1.0;" x1="794.5" x2="794.5" y1="709.2188" y2="722.2188"/><line style="stroke:#A80036;stroke-width:1.0;" x1="753.5" x2="794.5" y1="722.2188" y2="722.2188"/><polygon fill="#A80036" points="763.5,718.2188,753.5,722.2188,763.5,726.2188,759.5,722.2188" style="stroke:#A80036;stroke-width:1.0;"/><text fill="#000000" font-family="sans-serif" font-size="13" lengthAdjust="spacing" textLength="50" x="759.5" y="704.1528">timeout</text><polygon fill="#A80036" points="332.5,747.3516,322.5,751.3516,332.5,755.3516,328.5,751.3516" style="stroke:#A80036;stroke-width:1.0;"/><line style="stroke:#A80036;stroke-width:1.0;stroke-dasharray:2.0,2.0;" x1="326.5" x2="751.5" y1="751.3516" y2="751.3516"/><text fill="#000000" font-family="sans-serif" font-size="13" lengthAdjust="spacing" textLength="68" x="338.5" y="746.2856">calculating</text><polygon fill="#A80036" points="740.5,776.4844,750.5,780.4844,740.5,784.4844,744.5,780.4844" style="stroke:#A80036;stroke-width:1.0;"/><line style="stroke:#A80036;stroke-width:1.0;" x1="321.5" x2="746.5" y1="780.4844" y2="780.4844"/><text fill="#000000" font-family="sans-serif" font-size="13" lengthAdjust="spacing" textLength="407" x="328.5" y="775.4185">GET /calc/456/status?calculating&amp;progress=0.02&amp;timeout=120</text><line style="stroke:#A80036;stroke-width:1.0;" x1="752.5" x2="794.5" y1="809.6172" y2="809.6172"/><line style="stroke:#A80036;stroke-width:1.0;" x1="794.5" x2="794.5" y1="809.6172" y2="822.6172"/><line style="stroke:#A80036;stroke-width:1.0;" x1="753.5" x2="794.5" y1="822.6172" y2="822.6172"/><polygon fill="#A80036" points="763.5,818.6172,753.5,822.6172,763.5,826.6172,759.5,822.6172" style="stroke:#A80036;stroke-width:1.0;"/><text fill="#000000" font-family="sans-serif" font-size="13" lengthAdjust="spacing" textLength="121" x="759.5" y="804.5513">calculation finished</text><polygon fill="#A80036" points="332.5,847.75,322.5,851.75,332.5,855.75,328.5,851.75" style="stroke:#A80036;stroke-width:1.0;"/><line style="stroke:#A80036;stroke-width:1.0;stroke-dasharray:2.0,2.0;" x1="326.5" x2="751.5" y1="851.75" y2="851.75"/><text fill="#000000" font-family="sans-serif" font-size="13" lengthAdjust="spacing" textLength="62" x="338.5" y="846.6841">uploading</text><polygon fill="#A80036" points="740.5,876.8828,750.5,880.8828,740.5,884.8828,744.5,880.8828" style="stroke:#A80036;stroke-width:1.0;"/><line style="stroke:#A80036;stroke-width:1.0;" x1="321.5" x2="746.5" y1="880.8828" y2="880.8828"/><text fill="#000000" font-family="sans-serif" font-size="13" lengthAdjust="spacing" textLength="301" x="328.5" y="875.8169">GET /calc/456/status?completed&amp;timeout=120</text><line style="stroke:#A80036;stroke-width:1.0;" x1="752.5" x2="794.5" y1="910.0156" y2="910.0156"/><line style="stroke:#A80036;stroke-width:1.0;" x1="794.5" x2="794.5" y1="910.0156" y2="923.0156"/><line style="stroke:#A80036;stroke-width:1.0;" x1="753.5" x2="794.5" y1="923.0156" y2="923.0156"/><polygon fill="#A80036" points="763.5,919.0156,753.5,923.0156,763.5,927.0156,759.5,923.0156" style="stroke:#A80036;stroke-width:1.0;"/><text fill="#000000" font-family="sans-serif" font-size="13" lengthAdjust="spacing" textLength="68" x="759.5" y="904.9497">completed</text><polygon fill="#A80036" points="332.5,948.1484,322.5,952.1484,332.5,956.1484,328.5,952.1484" style="stroke:#A80036;stroke-width:1.0;"/><line style="stroke:#A80036;stroke-width:1.0;stroke-dasharray:2.0,2.0;" x1="326.5" x2="751.5" y1="952.1484" y2="952.1484"/><text fill="#000000" font-family="sans-serif" font-size="13" lengthAdjust="spacing" textLength="68" x="338.5" y="947.0825">completed</text><polygon fill="#A80036" points="740.5,977.2813,750.5,981.2813,740.5,985.2813,744.5,981.2813" style="stroke:#A80036;stroke-width:1.0;"/><line style="stroke:#A80036;stroke-width:1.0;" x1="321.5" x2="746.5" y1="981.2813" y2="981.2813"/><text fill="#000000" font-family="sans-serif" font-size="13" lengthAdjust="spacing" textLength="151" x="328.5" y="976.2153">GET /iss/456/immutable</text><polygon fill="#A80036" points="332.5,1006.4141,322.5,1010.4141,332.5,1014.4141,328.5,1010.4141" style="stroke:#A80036;stroke-width:1.0;"/><line style="stroke:#A80036;stroke-width:1.0;stroke-dasharray:2.0,2.0;" x1="326.5" x2="751.5" y1="1010.4141" y2="1010.4141"/><text fill="#000000" font-family="sans-serif" font-size="13" lengthAdjust="spacing" textLength="122" x="338.5" y="1005.3481">immutable_id=789</text><polygon fill="#A80036" points="484.5,1035.5469,494.5,1039.5469,484.5,1043.5469,488.5,1039.5469" style="stroke:#A80036;stroke-width:1.0;"/><line style="stroke:#A80036;stroke-width:1.0;" x1="321.5" x2="490.5" y1="1039.5469" y2="1039.5469"/><text fill="#000000" font-family="sans-serif" font-size="13" lengthAdjust="spacing" textLength="130" x="328.5" y="1034.481">store(immutable_id)</text><polygon fill="#A80036" points="740.5,1064.6797,750.5,1068.6797,740.5,1072.6797,744.5,1068.6797" style="stroke:#A80036;stroke-width:1.0;"/><line style="stroke:#A80036;stroke-width:1.0;" x1="321.5" x2="746.5" y1="1068.6797" y2="1068.6797"/><text fill="#000000" font-family="sans-serif" font-size="13" lengthAdjust="spacing" textLength="151" x="328.5" y="1063.6138">GET /iss/immutable/789</text><polygon fill="#A80036" points="332.5,1093.8125,322.5,1097.8125,332.5,1101.8125,328.5,1097.8125" style="stroke:#A80036;stroke-width:1.0;"/><line style="stroke:#A80036;stroke-width:1.0;stroke-dasharray:2.0,2.0;" x1="326.5" x2="751.5" y1="1097.8125" y2="1097.8125"/><text fill="#000000" font-family="sans-serif" font-size="13" lengthAdjust="spacing" textLength="108" x="338.5" y="1092.7466">calculation result</text><polygon fill="#A80036" points="43.5,1122.9453,33.5,1126.9453,43.5,1130.9453,39.5,1126.9453" style="stroke:#A80036;stroke-width:1.0;"/><line style="stroke:#A80036;stroke-width:1.0;stroke-dasharray:2.0,2.0;" x1="37.5" x2="320.5" y1="1126.9453" y2="1126.9453"/><text fill="#000000" font-family="sans-serif" font-size="13" lengthAdjust="spacing" textLength="247" x="49.5" y="1121.8794">iss_object_response(calculation result)</text><polygon fill="#A80036" points="484.5,1152.0781,494.5,1156.0781,484.5,1160.0781,488.5,1156.0781" style="stroke:#A80036;stroke-width:1.0;"/><line style="stroke:#A80036;stroke-width:1.0;" x1="321.5" x2="490.5" y1="1156.0781" y2="1156.0781"/><text fill="#000000" font-family="sans-serif" font-size="13" lengthAdjust="spacing" textLength="151" x="328.5" y="1151.0122">store(calculation result)</text><!--MD5=[f9ea2ed0c024a516908716362cd92966]
@startuml
client -> server: post_calculation(calculation)

server -> cache: find(calculation)
server <- - cache: miss

server -> Thinknode: POST /iss/dynamic (calculation)
server <- - Thinknode: calculation_data_id=123

server -> Thinknode: POST /calc/123
server <- - Thinknode: calculation_id=456
client <- - server: post_calculation_response(calculation_id)
server -> cache: store(calculation_id)

client -> server: iss_object(object_id=456)
server -> Thinknode: GET /iss/456/immutable
server <- - Thinknode: 202

server -> Thinknode: GET /calc/456/status
server <- - Thinknode: queued+pending

server -> Thinknode: GET /calc/456/status?queued&queued=ready&timeout=120
Thinknode -> Thinknode: queueing finished
Thinknode -> Thinknode: started calculation
server <- - Thinknode: calculating

server -> Thinknode: GET /calc/456/status?calculating&progress=0.00&timeout=120
server <- - Thinknode: calculating

server -> Thinknode: GET /calc/456/status?calculating&progress=0.01&timeout=120
Thinknode -> Thinknode: timeout
server <- - Thinknode: calculating

server -> Thinknode: GET /calc/456/status?calculating&progress=0.02&timeout=120
Thinknode -> Thinknode: calculation finished
server <- - Thinknode: uploading

server -> Thinknode: GET /calc/456/status?completed&timeout=120
Thinknode -> Thinknode: completed
server <- - Thinknode: completed

server -> Thinknode: GET /iss/456/immutable
server <- - Thinknode: immutable_id=789
server -> cache: store(immutable_id)

server -> Thinknode: GET /iss/immutable/789
server <- - Thinknode: calculation result

client <- - server: iss_object_response(calculation result)

server -> cache: store(calculation result)
@enduml

PlantUML version 1.2022.0(Tue Jan 11 17:16:42 CET 2022)
(GPL source distribution)
Java Runtime: OpenJDK Runtime Environment
JVM: OpenJDK 64-Bit Server VM
Default Encoding: UTF-8
Language: en
Country: null
--></g></svg>